<svg width="781" height="781" viewBox="0 0 781 781" fill="none" xmlns="http://www.w3.org/2000/svg">
<g clip-path="url(#clip0_4_160)">
<rect width="781" height="781"/>
<line x1="396" x2="396" y2="781" stroke="black" stroke-width="4"/>
<line x1="463.969" y1="11.35" x2="328.159" y2="775.417" stroke="black" stroke-width="4"/>
<line x1="528.878" y1="30.6881" x2="262.319" y2="758.138" stroke="black" stroke-width="4"/>
<line x1="588.732" y1="56.9998" x2="200.482" y2="729.683" stroke="black" stroke-width="4"/>
<line x1="689.284" y1="146.534" x2="96.1433" y2="643.042" stroke="black" stroke-width="4"/>
<line x1="637.544" y1="92.2714" x2="144.535" y2="690.912" stroke="black" stroke-width="4"/>
<line x1="727.007" y1="196.728" x2="56.8244" y2="587.478" stroke="black" stroke-width="4"/>
<line x1="755.701" y1="260.927" x2="27.7168" y2="525.891" stroke="black" stroke-width="4"/>
<line x1="772.347" y1="325.97" x2="9.77936" y2="460.279" stroke="black" stroke-width="4"/>
<line x1="784.5" y1="392.5" x2="3.49988" y2="392.5" stroke="black" stroke-width="4"/>
<line x1="771.64" y1="459.043" x2="9.09816" y2="324.587" stroke="black" stroke-width="4"/>
<line x1="754.316" y1="523.879" x2="26.3657" y2="258.82" stroke="black" stroke-width="4"/>
<line x1="726" y1="584.732" x2="54.8165" y2="196.982" stroke="black" stroke-width="4"/>
<line x1="685.715" y1="637.533" x2="93.5744" y2="141.024" stroke="black" stroke-width="4"/>
<line x1="639.469" y1="685.287" x2="141.46" y2="92.6462" stroke="black" stroke-width="4"/>
<line x1="582.599" y1="724.235" x2="195.686" y2="54.0822" stroke="black" stroke-width="4"/>
<line x1="523.375" y1="752.592" x2="258.308" y2="24.3264" stroke="black" stroke-width="4"/>
<line x1="459.075" y1="771.339" x2="324.176" y2="6.28774" stroke="black" stroke-width="4"/>
<line x1="396" x2="396" y2="781" stroke="black" stroke-width="4"/>
<line x1="463.969" y1="11.35" x2="328.159" y2="775.417" stroke="black" stroke-width="4"/>
<line x1="528.878" y1="30.6881" x2="262.319" y2="758.138" stroke="black" stroke-width="4"/>
<line x1="588.732" y1="56.9998" x2="200.482" y2="729.683" stroke="black" stroke-width="4"/>
<line x1="689.284" y1="146.534" x2="96.1433" y2="643.042" stroke="black" stroke-width="4"/>
<line x1="637.544" y1="92.2714" x2="144.535" y2="690.912" stroke="black" stroke-width="4"/>
<line x1="727.007" y1="196.728" x2="56.8244" y2="587.478" stroke="black" stroke-width="4"/>
<line x1="755.701" y1="260.927" x2="27.7168" y2="525.891" stroke="black" stroke-width="4"/>
<line x1="772.347" y1="325.97" x2="9.77936" y2="460.279" stroke="black" stroke-width="4"/>
<line x1="784.5" y1="392.5" x2="3.49988" y2="392.5" stroke="black" stroke-width="4"/>
<line x1="771.64" y1="459.043" x2="9.09816" y2="324.587" stroke="black" stroke-width="4"/>
<line x1="754.316" y1="523.879" x2="26.3657" y2="258.82" stroke="black" stroke-width="4"/>
<line x1="726" y1="584.732" x2="54.8165" y2="196.982" stroke="black" stroke-width="4"/>
<line x1="685.715" y1="637.533" x2="93.5744" y2="141.024" stroke="black" stroke-width="4"/>
<line x1="639.469" y1="685.287" x2="141.46" y2="92.6462" stroke="black" stroke-width="4"/>
<line x1="582.599" y1="724.235" x2="195.686" y2="54.0822" stroke="black" stroke-width="4"/>
<line x1="523.375" y1="752.592" x2="258.308" y2="24.3264" stroke="black" stroke-width="4"/>
<line x1="459.075" y1="771.339" x2="324.176" y2="6.28774" stroke="black" stroke-width="4"/>
<path d="M732.5 391C732.5 577.948 580.948 729.5 394 729.5C207.052 729.5 55.5 577.948 55.5 391C55.5 204.052 207.052 52.5 394 52.5C580.948 52.5 732.5 204.052 732.5 391Z" fill="white" stroke="white" stroke-width="9"/>
<path d="M393.5 -2.99997L542.5 34L664.5 115.5L747.5 239L778.5 383.5L771 464L750 532.5L707.5 608L657.5 672L593.5 718L524 755L393.5 778L393.5 -2.99997Z" fill="#939393"/>
<path d="M771.254 327.369C806.439 537.627 664.515 736.599 454.256 771.784C243.998 806.969 45.0269 665.044 9.84177 454.786C-25.3434 244.528 116.581 45.5565 326.84 10.3714C537.098 -24.8138 736.069 117.111 771.254 327.369Z" stroke="black" stroke-width="9"/>
<path fill-rule="evenodd" clip-rule="evenodd" d="M360.202 177.517C361.719 161.243 364.571 151.481 368.351 144.066C374.105 56.6167 394.844 20 394.844 20C394.844 20 415.717 56.5324 421.856 143.982C425.659 151.384 428.56 161.122 430.137 177.396C431.714 193.67 439.755 247.103 447.519 275.402C449.36 282.113 451.221 288.352 453.038 294.444C458.885 314.042 464.275 332.111 467.067 359.421L475.974 364.909C475.974 364.909 473.302 291.869 488.757 258.658C510.472 285.874 508.859 392.005 508.859 392.005L548.786 425.54L550.062 372.938C550.062 372.938 549.894 357.579 554.022 352.415C560.137 357.928 558.416 370.976 558.416 370.976L559.379 432.859L595.743 462.71L595.406 432.461L589.82 432.522L595.321 424.553C595.321 424.553 596.549 409.639 599.751 404.487C604.012 410.963 603.687 423.53 603.687 423.53L611.222 431.823L604.253 432.365L603.687 469.259L631.914 492.659L631.505 455.789L634.249 451.564L635.982 424.084L640.918 424.023L640.833 416.115C640.833 416.115 642.194 413.298 643.578 411.89C646.635 414.887 646.479 422.097 646.479 422.097L646.563 430.006L652.702 437.854L647.117 437.914L648.188 534.235L656 541.794L655.856 562.173L648.332 562.124L650.078 564.46L632.684 564.339L632.6 556.888L453.91 555.612L453.585 604.832L538.759 683.999L538.494 714.176L522.955 725.503L452.719 724.998L452.815 711.974L433.158 711.829L433.568 654.521L431.208 654.509L431.136 664.596C431.136 664.596 430.534 673.022 429.174 676.765C427.814 680.509 420.748 727.104 420.748 727.104L397.986 726.936L397.866 743.318L392.112 743.282L392.148 726.899L371.673 726.755C371.673 726.755 364.559 680.629 363.187 676.898C361.815 673.154 360.948 664.776 360.948 664.776L361.02 654.075L358.697 654.063L358.288 711.299L339.679 711.167L339.582 724.191L266.518 723.674L254.011 714.742L254.228 684.024L339.486 605.049L340.317 554.794L159.292 553.494L159.244 560.945L142.957 560.824L145.305 558.513L136 558.441L136.12 541.685L143.607 535.222L144.294 438.889L138.708 438.853L144.811 430.981L144.871 423.072C144.871 423.072 144.691 415.85 147.736 412.853C149.12 414.261 150.493 417.066 150.493 417.066L150.432 424.974L155.368 425.01L157.209 452.479L159.966 456.692L159.701 493.561L187.831 470.041L187.121 433.147L180.14 432.63L187.651 424.312C187.651 424.312 187.278 411.746 191.515 405.258C194.741 410.397 196.029 425.299 196.029 425.299L201.554 433.256L195.969 433.22L195.752 463.469L231.995 433.484L232.706 371.59C232.706 371.59 230.936 358.542 237.027 353.005C241.18 358.157 241.071 373.516 241.071 373.516L242.552 426.118L282.346 392.426C282.346 392.426 280.312 286.308 301.919 259.008C317.506 292.158 315.123 365.21 315.123 365.21L324.007 359.685C326.675 332.418 331.989 314.342 337.749 294.753C339.551 288.624 341.396 282.347 343.218 275.595C350.861 247.259 358.685 193.791 360.202 177.517Z" fill="black"/>
<path d="M381.685 388.75L395.5 36.7496L409.315 388.75H381.685Z" fill="#FF0000" stroke="black"/>
<path d="M418 392.649C418 405.735 407.678 416.297 395 416.297C382.322 416.297 372 405.735 372 392.649C372 379.563 382.322 369 395 369C407.678 369 418 379.563 418 392.649Z" fill="#FF0000" stroke="black" stroke-width="2"/>
<line x1="406.027" y1="393.743" x2="419" y2="393.743" stroke="black" stroke-width="3"/>
<line x1="371" y1="393.743" x2="383.973" y2="393.743" stroke="black" stroke-width="3"/>
<line x1="395.446" y1="382.27" x2="395.446" y2="369.297" stroke="black" stroke-width="3"/>
<line x1="395.446" y1="417.297" x2="395.446" y2="404.324" stroke="black" stroke-width="3"/>
<line x1="383.973" y1="393.446" x2="406.027" y2="393.446" stroke="black"/>
<line x1="395.5" y1="405" x2="395.5" y2="382" stroke="black"/>
<line x1="399.5" y1="392" x2="399.5" y2="395" stroke="black"/>
<line x1="394" y1="389.5" x2="397" y2="389.5" stroke="black"/>
<line x1="394" y1="385.5" x2="397" y2="385.5" stroke="black"/>
<line x1="394" y1="400.5" x2="397" y2="400.5" stroke="black"/>
<line x1="394" y1="396.5" x2="397" y2="396.5" stroke="black"/>
<line x1="403.5" y1="392" x2="403.5" y2="395" stroke="black"/>
<line x1="387.5" y1="392" x2="387.5" y2="395" stroke="black"/>
<line x1="391.5" y1="392" x2="391.5" y2="395" stroke="black"/>
</g>
<defs>
<clipPath id="clip0_4_160">
<rect width="781" height="781" fill="white"/>
</clipPath>
</defs>
</svg>
